<?xml version="1.0" encoding="UTF-8" standalone="no"?><style>
  @keyframes prompt-blink {
    0%, 49% { opacity: 1; }
    50%, 100% { opacity: 0; }
  }
  .chevron-blink { animation: prompt-blink 1.1s step-end infinite; }
</style><!DOCTYPE svg PUBLIC "-//W3C//DTD SVG 1.1//EN" "http://www.w3.org/Graphics/SVG/1.1/DTD/svg11.dtd"><svg background="transparent" width="100%" height="100%" viewBox="0 0 5076 798" version="1.1" xmlns="http://www.w3.org/2000/svg" xmlns:xlink="http://www.w3.org/1999/xlink" xml:space="preserve" xmlns:serif="http://www.serif.com/" style="fill-rule:evenodd;clip-rule:evenodd;stroke-linejoin:round;stroke-miterlimit:2;"><g id="lght"><g><path d="M355.598,750.105c-49.547,0 -87.327,-14.09 -113.34,-42.27c-26.012,-28.18 -39.019,-68.592 -39.019,-121.236l0,-496.093l102.192,0l0,503.525c0,22.296 4.49,38.399 13.471,48.309c8.98,9.909 21.832,14.864 38.554,14.864c16.722,0 29.574,-4.955 38.554,-14.864c8.98,-9.909 13.471,-26.012 13.471,-48.309l0,-503.525l98.475,0l0,496.093c0,52.644 -13.006,93.056 -39.019,121.236c-26.012,28.18 -63.792,42.27 -113.34,42.27Z" style="fill:#f2f0ec;"/><path d="M580.419,90.506l128.204,0l99.404,389.257l1.858,0l0,-389.257l91.043,0l0,650.31l-104.979,0l-122.63,-474.726l-1.858,0l0,474.726l-91.043,0l0,-650.31Z" style="fill:#f2f0ec;"/><path d="M977.108,90.506l151.429,0c52.644,0 91.043,12.232 115.198,36.696c24.154,24.464 36.232,62.089 36.232,112.875l0,39.948c0,67.508 -22.296,110.243 -66.889,128.204l0,1.858c24.774,7.432 42.27,22.606 52.489,45.522c10.219,22.916 15.329,53.573 15.329,91.972l0,114.269c0,18.58 0.619,33.599 1.858,45.057c1.239,11.458 4.335,22.761 9.29,33.909l-104.05,0c-3.716,-10.529 -6.193,-20.438 -7.432,-29.728c-1.239,-9.29 -1.858,-26.012 -1.858,-50.167l0,-118.914c0,-29.728 -4.8,-50.476 -14.4,-62.244c-9.6,-11.768 -26.167,-17.651 -49.702,-17.651l-35.303,0l0,278.704l-102.192,0l0,-650.31Zm139.352,278.704c20.438,0 35.767,-5.264 45.986,-15.793c10.219,-10.529 15.329,-28.18 15.329,-52.954l0,-50.167c0,-23.535 -4.181,-40.567 -12.542,-51.096c-8.361,-10.529 -21.522,-15.793 -39.483,-15.793l-46.451,0l0,185.803l37.161,0Z" style="fill:#f2f0ec;"/><path d="M1351.5,90.506l278.704,0l0,92.901l-176.513,0l0,171.868l140.281,0l0,92.901l-140.281,0l0,199.738l176.513,0l0,92.901l-278.704,0l0,-650.31Z" style="fill:#f2f0ec;"/><path d="M1767.699,90.506l138.423,0l105.908,650.31l-102.192,0l-18.58,-129.133l0,1.858l-116.127,0l-18.58,127.275l-94.759,0l105.908,-650.31Zm111.482,434.778l-45.522,-321.439l-1.858,0l-44.593,321.439l91.972,0Z" style="fill:#f2f0ec;"/><path d="M2061.267,90.506l102.192,0l0,557.408l168.151,0l0,92.901l-270.343,0l0,-650.31Z" style="fill:#f2f0ec;"/></g><g><path d="M4148.551,768.653c-21.3,0 -37.409,-6.057 -48.325,-18.172c-10.916,-12.115 -16.375,-29.488 -16.375,-52.119l0,-15.975l41.535,0l0,19.17c0,18.105 7.588,27.158 22.765,27.158c7.455,0 13.113,-2.197 16.974,-6.59c3.861,-4.393 5.791,-11.515 5.791,-21.367c0,-11.715 -2.663,-22.032 -7.988,-30.952c-5.325,-8.919 -15.176,-19.636 -29.554,-32.15c-18.105,-15.975 -30.752,-30.419 -37.941,-43.333c-7.189,-12.913 -10.783,-27.491 -10.783,-43.732c0,-22.099 5.591,-39.206 16.774,-51.32c11.183,-12.115 27.424,-18.172 48.724,-18.172c21.034,0 36.943,6.057 47.726,18.172c10.783,12.115 16.175,29.488 16.175,52.119l0,11.582l-41.535,0l0,-14.378c0,-9.585 -1.864,-16.574 -5.591,-20.967c-3.728,-4.393 -9.186,-6.59 -16.375,-6.59c-14.644,0 -21.966,8.919 -21.966,26.758c0,10.118 2.729,19.57 8.187,28.356c5.458,8.786 15.376,19.436 29.754,31.95c18.371,15.975 31.018,30.486 37.941,43.532c6.923,13.046 10.384,28.356 10.384,45.929c0,22.898 -5.658,40.47 -16.974,52.718c-11.316,12.248 -27.757,18.371 -49.323,18.371Z" style="fill:#1a1a1a;"/><path d="M4274.355,525.031l-45.929,0l0,-39.938l135.789,0l0,39.938l-45.929,0l0,239.628l-43.932,0l0,-239.628Z" style="fill:#1a1a1a;"/><path d="M4449.284,768.653c-21.3,0 -37.542,-6.057 -48.724,-18.172c-11.183,-12.115 -16.774,-29.488 -16.774,-52.119l0,-213.269l43.932,0l0,216.464c0,9.585 1.93,16.508 5.791,20.768c3.861,4.26 9.385,6.39 16.574,6.39c7.189,0 12.714,-2.13 16.574,-6.39c3.861,-4.26 5.791,-11.183 5.791,-20.768l0,-216.464l42.334,0l0,213.269c0,22.632 -5.591,40.005 -16.774,52.119c-11.183,12.115 -27.424,18.172 -48.724,18.172Z" style="fill:#1a1a1a;"/><path d="M4545.934,485.093l67.096,0c21.833,0 38.207,5.858 49.124,17.573c10.916,11.715 16.375,28.888 16.375,51.52l0,141.38c0,22.632 -5.458,39.805 -16.375,51.52c-10.916,11.715 -27.291,17.573 -49.124,17.573l-67.096,0l0,-279.566Zm66.297,239.628c7.189,0 12.714,-2.13 16.574,-6.39c3.861,-4.26 5.791,-11.183 5.791,-20.768l0,-145.374c0,-9.585 -1.93,-16.508 -5.791,-20.768c-3.861,-4.26 -9.385,-6.39 -16.574,-6.39l-22.365,0l0,199.69l22.365,0Z" style="fill:#1a1a1a;"/><rect x="4708.082" y="485.093" width="43.932" height="279.566" style="fill:#1a1a1a;"/><path d="M4848.264,768.653c-21.567,0 -38.074,-6.124 -49.523,-18.371c-11.449,-12.248 -17.173,-29.554 -17.173,-51.919l0,-146.972c0,-22.365 5.724,-39.672 17.173,-51.919c11.449,-12.248 27.957,-18.371 49.523,-18.371c21.567,0 38.074,6.124 49.523,18.371c11.449,12.248 17.173,29.554 17.173,51.919l0,146.972c0,22.365 -5.724,39.672 -17.173,51.919c-11.449,12.248 -27.957,18.371 -49.523,18.371Zm0,-39.938c15.176,0 22.765,-9.186 22.765,-27.557l0,-152.563c0,-18.371 -7.588,-27.557 -22.765,-27.557c-15.176,0 -22.765,9.186 -22.765,27.557l0,152.563c0,18.371 7.588,27.557 22.765,27.557Z" style="fill:#1a1a1a;"/></g><path d="M2415.419,738.551l-0,-102.169l334.506,-228.738l-334.506,-213.65l-0,-102.17l403.748,265.386l0,96.32l-403.748,285.022Z" id="chevron-lght" class="chevron-blink" style="fill:#00FFD1;"/><g><rect x="2902.834" y="114.349" width="102.192" height="650.31" style="fill:#f2f0ec;"/><path d="M3081.205,114.349l102.192,0l0,557.408l168.151,0l0,92.901l-270.343,0l0,-650.31Z" style="fill:#f2f0ec;"/><path d="M3400.786,114.349l102.192,0l0,557.408l168.151,0l0,92.901l-270.343,0l0,-650.31Z" style="fill:#f2f0ec;"/><path d="M3720.366,114.349l278.704,0l0,92.901l-176.513,0l0,171.868l140.281,0l0,92.901l-140.281,0l0,199.738l176.513,0l0,92.901l-278.704,0l0,-650.31Z" style="fill:#f2f0ec;"/></g></g></svg>