<?xml version="1.0" encoding="UTF-8" standalone="no"?><style>
  @keyframes prompt-blink {
    0%, 49% { opacity: 1; }
    50%, 100% { opacity: 0; }
  }
  .chevron-blink { animation: prompt-blink 1.1s step-end infinite; }
</style><!DOCTYPE svg PUBLIC "-//W3C//DTD SVG 1.1//EN" "http://www.w3.org/Graphics/SVG/1.1/DTD/svg11.dtd"><svg background="transparent" width="100%" height="100%" viewBox="0 0 5076 798" version="1.1" xmlns="http://www.w3.org/2000/svg" xmlns:xlink="http://www.w3.org/1999/xlink" xml:space="preserve" xmlns:serif="http://www.serif.com/" style="fill-rule:evenodd;clip-rule:evenodd;stroke-linejoin:round;stroke-miterlimit:2;"><g id="drk"><g><path d="M355.496,769.381c-49.537,0 -87.309,-14.087 -113.316,-42.261c-26.007,-28.174 -39.011,-68.578 -39.011,-121.211l0,-495.991l102.17,0l0,503.421c0,22.292 4.489,38.391 13.468,48.299c8.979,9.907 21.827,14.861 38.546,14.861c16.719,0 29.567,-4.954 38.546,-14.861c8.979,-9.907 13.468,-26.007 13.468,-48.299l0,-503.421l98.455,0l0,495.991c0,52.633 -13.004,93.037 -39.011,121.211c-26.007,28.174 -63.779,42.261 -113.316,42.261Z" style="fill:#1a1a1a;"/><path d="M580.271,109.918l128.177,0l99.384,389.176l1.858,0l0,-389.176l91.025,0l0,650.175l-104.957,0l-122.604,-474.628l-1.858,0l0,474.628l-91.025,0l0,-650.175Z" style="fill:#1a1a1a;"/><path d="M976.878,109.918l151.398,0c52.633,0 91.025,12.229 115.174,36.688c24.149,24.459 36.224,62.076 36.224,112.852l0,39.939c0,67.494 -22.292,110.22 -66.875,128.177l0,1.858c24.769,7.431 42.261,22.601 52.478,45.512c10.217,22.911 15.326,53.562 15.326,91.953l0,114.245c0,18.576 0.619,33.592 1.858,45.048c1.238,11.455 4.335,22.756 9.288,33.902l-104.028,0c-3.715,-10.527 -6.192,-20.434 -7.431,-29.722c-1.238,-9.288 -1.858,-26.007 -1.858,-50.156l0,-118.889c0,-29.722 -4.799,-50.466 -14.397,-62.231c-9.598,-11.765 -26.162,-17.648 -49.692,-17.648l-35.295,0l0,278.646l-102.17,0l0,-650.175Zm139.323,278.646c20.434,-0 35.76,-5.263 45.977,-15.79c10.217,-10.527 15.326,-28.174 15.326,-52.943l0,-50.156c0,-23.53 -4.18,-40.559 -12.539,-51.085c-8.359,-10.527 -21.518,-15.79 -39.475,-15.79l-46.441,0l0,185.764l37.153,0Z" style="fill:#1a1a1a;"/><path d="M1351.193,109.918l278.646,0l0,92.882l-176.476,0l0,171.832l140.252,0l0,92.882l-140.252,0l0,199.697l176.476,0l0,92.882l-278.646,0l0,-650.175Z" style="fill:#1a1a1a;"/><path d="M1767.305,109.918l138.394,0l105.886,650.175l-102.17,0l-18.576,-129.106l0,1.858l-116.103,0l-18.576,127.249l-94.74,0l105.886,-650.175Zm111.459,434.688l-45.512,-321.372l-1.858,0l-44.583,321.372l91.953,0Z" style="fill:#1a1a1a;"/><path d="M2060.813,109.918l102.17,0l0,557.293l168.117,0l0,92.882l-270.287,0l0,-650.175Z" style="fill:#1a1a1a;"/></g><g><path d="M4100.544,786.748c-21.3,0 -37.409,-6.057 -48.325,-18.172c-10.916,-12.115 -16.375,-29.488 -16.375,-52.119l0,-15.975l41.535,0l0,19.17c0,18.105 7.588,27.158 22.765,27.158c7.455,0 13.113,-2.197 16.974,-6.59c3.861,-4.393 5.791,-11.515 5.791,-21.367c0,-11.715 -2.663,-22.032 -7.988,-30.952c-5.325,-8.919 -15.176,-19.636 -29.554,-32.15c-18.105,-15.975 -30.752,-30.419 -37.941,-43.333c-7.189,-12.913 -10.783,-27.491 -10.783,-43.732c0,-22.099 5.591,-39.206 16.774,-51.32c11.183,-12.115 27.424,-18.172 48.724,-18.172c21.034,0 36.943,6.057 47.726,18.172c10.783,12.115 16.175,29.488 16.175,52.119l0,11.582l-41.535,0l0,-14.378c0,-9.585 -1.864,-16.574 -5.591,-20.967c-3.728,-4.393 -9.186,-6.59 -16.375,-6.59c-14.644,0 -21.966,8.919 -21.966,26.758c0,10.118 2.729,19.57 8.187,28.356c5.458,8.786 15.376,19.436 29.754,31.95c18.371,15.975 31.018,30.486 37.941,43.532c6.923,13.046 10.384,28.356 10.384,45.929c0,22.898 -5.658,40.47 -16.974,52.718c-11.316,12.248 -27.757,18.371 -49.323,18.371Z" style="fill:#f2f0ec;"/><path d="M4226.349,543.126l-45.929,0l0,-39.938l135.789,0l0,39.938l-45.929,0l0,239.628l-43.932,0l0,-239.628Z" style="fill:#f2f0ec;"/><path d="M4401.277,786.748c-21.3,0 -37.542,-6.057 -48.724,-18.172c-11.183,-12.115 -16.774,-29.488 -16.774,-52.119l0,-213.269l43.932,0l0,216.464c0,9.585 1.93,16.508 5.791,20.768c3.861,4.26 9.385,6.39 16.574,6.39c7.189,0 12.714,-2.13 16.574,-6.39c3.861,-4.26 5.791,-11.183 5.791,-20.768l0,-216.464l42.334,0l0,213.269c0,22.632 -5.591,40.005 -16.774,52.119c-11.183,12.115 -27.424,18.172 -48.724,18.172Z" style="fill:#f2f0ec;"/><path d="M4497.927,503.188l67.096,0c21.833,0 38.207,5.858 49.124,17.573c10.916,11.715 16.375,28.888 16.375,51.52l0,141.38c0,22.632 -5.458,39.805 -16.375,51.52c-10.916,11.715 -27.291,17.573 -49.124,17.573l-67.096,0l0,-279.566Zm66.297,239.628c7.189,0 12.714,-2.13 16.574,-6.39c3.861,-4.26 5.791,-11.183 5.791,-20.768l0,-145.374c0,-9.585 -1.93,-16.508 -5.791,-20.768c-3.861,-4.26 -9.385,-6.39 -16.574,-6.39l-22.365,0l0,199.69l22.365,0Z" style="fill:#f2f0ec;"/><rect x="4660.075" y="503.188" width="43.932" height="279.566" style="fill:#f2f0ec;"/><path d="M4800.258,786.748c-21.567,0 -38.074,-6.124 -49.523,-18.371c-11.449,-12.248 -17.173,-29.554 -17.173,-51.919l0,-146.972c0,-22.365 5.724,-39.672 17.173,-51.919c11.449,-12.248 27.957,-18.371 49.523,-18.371c21.567,0 38.074,6.124 49.523,18.371c11.449,12.248 17.173,29.554 17.173,51.919l0,146.972c0,22.365 -5.724,39.672 -17.173,51.919c-11.449,12.248 -27.957,18.371 -49.523,18.371Zm0,-39.938c15.176,0 22.765,-9.186 22.765,-27.557l0,-152.563c0,-18.371 -7.588,-27.557 -22.765,-27.557c-15.176,0 -22.765,9.186 -22.765,27.557l0,152.563c0,18.371 7.588,27.557 22.765,27.557Z" style="fill:#f2f0ec;"/></g><path d="M2415.419,756.646l-0,-102.169l334.506,-228.738l-334.506,-213.65l-0,-102.17l403.748,265.386l0,96.32l-403.748,285.022Z" id="chevron-drk" class="chevron-blink" style="fill:#00FFD1;"/><g><rect x="2902.757" y="147.075" width="97.791" height="622.306" style="fill:#1a1a1a;"/><path d="M3073.447,147.075l97.791,0l0,533.405l160.911,0l0,88.901l-258.701,0l0,-622.306Z" style="fill:#1a1a1a;"/><path d="M3379.266,147.075l97.791,0l0,533.405l160.911,0l0,88.901l-258.701,0l0,-622.306Z" style="fill:#1a1a1a;"/><path d="M3685.084,147.075l266.703,0l0,88.901l-168.912,0l0,164.467l134.24,0l0,88.901l-134.24,0l0,191.137l168.912,0l0,88.901l-266.703,0l0,-622.306Z" style="fill:#1a1a1a;"/></g></g></svg>